<svg width="400" height="600" viewBox="0 0 400 600" xmlns="http://www.w3.org/2000/svg">
  <!-- 背景 -->
  <rect width="400" height="600" fill="#f8f9fa"/>
  
  <!-- 人物輪廓 -->
  <g transform="translate(200, 50)">
    <!-- 頭部 -->
    <circle cx="0" cy="40" r="35" fill="#f4c2a1" stroke="#e8b088" stroke-width="2"/>
    
    <!-- 頭髮 -->
    <path d="M-30 15 Q0 -5 30 15 Q30 25 0 40 Q-30 25 -30 15" fill="#4a4a4a"/>
    
    <!-- 西裝外套 -->
    <rect x="-60" y="75" width="120" height="200" rx="10" fill="#2d3748"/>
    
    <!-- 襯衫 */}
    <rect x="-50" y="85" width="100" height="180" fill="#ffffff"/>
    
    <!-- 領帶 -->
    <rect x="-15" y="85" width="30" height="120" fill="#1a365d"/>
    
    <!-- 西裝褲 */
    <rect x="-50" y="275" width="100" height="150" fill="#2d3748"/>
    
    <!-- 皮鞋 */
    <ellipse cx="-25" cy="450" rx="30" ry="15" fill="#1a1a1a"/>
    <ellipse cx="25" cy="450" rx="30" ry="15" fill="#1a1a1a"/>
    
    <!-- 手臂 */
    <rect x="-80" y="100" width="20" height="100" fill="#2d3748"/>
    <rect x="60" y="100" width="20" height="100" fill="#2d3748"/>
    
    <!-- 手 -->
    <circle cx="-70" cy="210" r="12" fill="#f4c2a1"/>
    <circle cx="70" cy="210" r="12" fill="#f4c2a1"/>
    
    <!-- 腿 */
    <rect x="-35" y="425" width="20" height="40" fill="#2d3748"/>
    <rect x="15" y="425" width="20" height="40" fill="#2d3748"/>
  </g>
  
  <!-- 標題 -->
  <text x="200" y="550" text-anchor="middle" font-family="Arial, sans-serif" font-size="24" font-weight="bold" fill="#2d3748">男性正式商務服裝</text>
</svg>