<svg xmlns="http://www.w3.org/2000/svg" width="240" height="168" viewBox="0 0 240 168">
  <!-- 背景 -->
  <rect width="240" height="168" fill="#fff5f5"/>
  
  <!-- 卡片主體 -->
  <rect x="10" y="10" width="220" height="148" rx="25" fill="#ffffff" stroke="#ff69b4" stroke-width="3" stroke-dasharray="5,3"/>
  
  <!-- 標題區域 -->
  <rect x="18" y="18" width="204" height="32" fill="#ffb3d9" rx="16"/>
  <text x="120" y="38" text-anchor="middle" fill="#ff1493" font-family="Comic Sans MS, cursive" font-size="13" font-weight="700">塗鴉可愛風</text>
  
  <!-- 可愛頭像 -->
  <circle cx="55" cy="90" r="22" fill="#ffe4e1" stroke="#ff69b4" stroke-width="2"/>
  <circle cx="48" cy="85" r="3" fill="#ff1493"/>
  <circle cx="62" cy="85" r="3" fill="#ff1493"/>
  <path d="M45 95 Q55 100 65 95" stroke="#ff69b4" stroke-width="2" fill="none"/>
  
  <!-- 資訊區塊 -->
  <rect x="88" y="70" width="130" height="12" fill="#ff69b4" rx="6" transform="rotate(-1 153 76)"/>
  <rect x="88" y="88" width="100" height="10" fill="#87ceeb" rx="5" transform="rotate(1 138 93)"/>
  <rect x="88" y="104" width="120" height="10" fill="#98fb98" rx="5" transform="rotate(-0.5 148 109)"/>
  
  <!-- 可愛裝飾元素 -->
  <circle cx="200" cy="70" r="6" fill="#ff69b4"/>
  <circle cx="205" cy="65" r="4" fill="#ffb3d9"/>
  <circle cx="195" cy="65" r="4" fill="#ffb3d9"/>
  
  <polygon points="180,90 190,85 190,95" fill="#87ceeb"/>
  <circle cx="185" cy="100" r="5" fill="#98fb98"/>
  
  <!-- 手繪風格線條 -->
  <path d="M20 125 Q30 120, 40 125 Q50 130, 60 125 Q70 120, 80 125 Q90 130, 100 125" stroke="#ff69b4" stroke-width="2" fill="none"/>
  <path d="M110 125 Q120 130, 130 125 Q140 120, 150 125 Q160 130, 170 125 Q180 120, 190 125" stroke="#87ceeb" stroke-width="2" fill="none"/>
  
  <!-- 愛心裝飾 -->
  <path d="M25 140 C25 137, 30 137, 30 140 C30 137, 35 137, 35 140 C35 143, 30 148, 25 140 Z" fill="#ff69b4"/>
  <path d="M200 140 C200 137, 205 137, 205 140 C205 137, 210 137, 210 140 C210 143, 205 148, 200 140 Z" fill="#98fb98"/>
  
  <!-- 星星裝飾 -->
  <polygon points="50,130 52,135 57,135 53,138 55,143 50,140 45,143 47,138 43,135 48,135" fill="#ffb3d9"/>
  <polygon points="180,130 182,135 187,135 183,138 185,143 180,140 175,143 177,138 173,135 178,135" fill="#87ceeb"/>
</svg>