<svg xmlns="http://www.w3.org/2000/svg" width="240" height="168" viewBox="0 0 240 168">
  <!-- 背景 -->
  <rect width="240" height="168" fill="#1a1a1a"/>
  
  <!-- 卡片主體 -->
  <rect x="12" y="12" width="216" height="144" rx="16" fill="#2d2d2d" stroke="#d4af37" stroke-width="2"/>
  
  <!-- 標題區域 -->
  <rect x="20" y="20" width="200" height="32" fill="#d4af37" rx="8"/>
  <text x="120" y="40" text-anchor="middle" fill="#1a1a1a" font-family="Inter, sans-serif" font-size="14" font-weight="600">質感商務感</text>
  
  <!-- 頭像區域 -->
  <circle cx="50" cy="90" r="18" fill="#3a3a3a" stroke="#d4af37" stroke-width="2"/>
  <circle cx="50" cy="85" r="6" fill="#d4af37"/>
  <path d="M38 98 Q50 92 62 98" stroke="#d4af37" stroke-width="2" fill="none"/>
  
  <!-- 資訊區塊 -->
  <rect x="80" y="72" width="140" height="8" fill="#d4af37" rx="4"/>
  <rect x="80" y="86" width="100" height="6" fill="#888" rx="3"/>
  <rect x="80" y="98" width="120" height="6" fill="#888" rx="3"/>
  
  <!-- 聯絡資訊圖標 -->
  <circle cx="30" cy="125" r="4" fill="#d4af37"/>
  <rect x="40" y="122" width="60" height="6" fill="#666" rx="3"/>
  
  <circle cx="30" cy="140" r="4" fill="#d4af37"/>
  <rect x="40" y="137" width="80" height="6" fill="#666" rx="3"/>
  
  <!-- 裝飾線條 -->
  <line x1="20" y1="60" x2="220" y2="60" stroke="#d4af37" stroke-width="1" opacity="0.5"/>
  <line x1="20" y1="115" x2="220" y2="115" stroke="#d4af37" stroke-width="1" opacity="0.3"/>
</svg>