<svg width="200" height="140" viewBox="0 0 200 140" xmlns="http://www.w3.org/2000/svg">
  <defs>
    <linearGradient id="techGradient" x1="0%" y1="0%" x2="100%" y2="100%">
      <stop offset="0%" style="stop-color:#1e293b;stop-opacity:1" />
      <stop offset="100%" style="stop-color:#334155;stop-opacity:1" />
    </linearGradient>
  </defs>
  
  <!-- Background -->
  <rect width="200" height="140" fill="url(#techGradient)" rx="16"/>
  
  <!-- Header Card -->
  <rect x="16" y="16" width="168" height="40" fill="#0f172a" rx="8" opacity="0.8"/>
  <rect x="24" y="24" width="32" height="4" fill="#3b82f6" rx="2"/>
  <rect x="24" y="32" width="80" height="3" fill="#64748b" rx="1.5"/>
  <rect x="24" y="40" width="60" height="3" fill="#64748b" rx="1.5"/>
  
  <!-- Content Cards -->
  <rect x="16" y="64" width="80" height="32" fill="#0f172a" rx="8" opacity="0.8"/>
  <rect x="24" y="72" width="16" height="3" fill="#3b82f6" rx="1.5"/>
  <rect x="24" y="80" width="48" height="2" fill="#64748b" rx="1"/>
  <rect x="24" y="84" width="32" height="2" fill="#64748b" rx="1"/>
  
  <rect x="104" y="64" width="80" height="32" fill="#0f172a" rx="8" opacity="0.8"/>
  <rect x="112" y="72" width="16" height="3" fill="#3b82f6" rx="1.5"/>
  <rect x="112" y="80" width="48" height="2" fill="#64748b" rx="1"/>
  <rect x="112" y="84" width="32" height="2" fill="#64748b" rx="1"/>
  
  <!-- Bottom Card -->
  <rect x="16" y="104" width="168" height="20" fill="#0f172a" rx="8" opacity="0.8"/>
  <rect x="24" y="110" width="120" height="2" fill="#64748b" rx="1"/>
  <rect x="24" y="114" width="80" height="2" fill="#64748b" rx="1"/>
  
  <!-- Tech Elements -->
  <circle cx="160" cy="32" r="8" fill="none" stroke="#3b82f6" stroke-width="1" opacity="0.6"/>
  <circle cx="160" cy="32" r="4" fill="#3b82f6" opacity="0.4"/>
  
  <text x="100" y="135" font-family="Inter, sans-serif" font-size="8" fill="#64748b" text-anchor="middle">科技專業版</text>
</svg>